<svg xmlns="http://www.w3.org/2000/svg" xmlns:xlink="http://www.w3.org/1999/xlink" width="153px" height="36px" viewBox="0 0 153 36" version="1.1" id="svg-replaced-0" class="wm-svg replaced-svg svg-replaced-0">
<g id="wm-Page-1" stroke="none" stroke-width="1" fill="none" fill-rule="evenodd">
    <g id="wm-UI-Home" transform="translate(-132.000000, -24.000000)" fill="#000000">
    <g id="wm-header">
        <g id="wm-Windmill_smart_solutions">
        <path d="M284.277822,55.5320545 C284.17714,55.3862344 284.043055,55.2791109 283.875096,55.2111559 C283.706666,55.143201 283.529768,55.1092235 283.344401,55.1092235 C283.233839,55.1092235 283.127042,55.121965 283.024478,55.1469762 C282.921444,55.1719874 282.828761,55.2125717 282.745487,55.2677851 C282.662683,55.3234704 282.596347,55.3947288 282.546006,55.4829759 C282.496135,55.571223 282.47073,55.675515 282.47073,55.7963238 C282.47073,55.9775371 282.533773,56.1158066 282.65939,56.2116043 C282.784536,56.3074019 282.940263,56.390458 283.126101,56.4607725 C283.311468,56.531559 283.514712,56.5995139 283.735835,56.6646375 C283.956017,56.7302329 284.159733,56.8208395 284.34557,56.9364574 C284.530937,57.0525471 284.686664,57.2059177 284.812281,57.3970411 C284.937427,57.5881645 285,57.8425238 285,58.159647 C285,58.446568 284.947777,58.697152 284.841921,58.9109271 C284.737005,59.1247021 284.594922,59.3021401 284.417082,59.4432411 C284.238772,59.584342 284.031764,59.6900498 283.796056,59.7603643 C283.559878,59.8306788 283.311468,59.8660721 283.050825,59.8660721 C282.71914,59.8660721 282.400629,59.8103867 282.09435,59.6999599 C281.788542,59.589533 281.524606,59.4031288 281.304424,59.1412189 L282.019075,58.446568 C282.134811,58.6225903 282.286774,58.759916 282.474964,58.8580732 C282.662683,58.9562304 282.862165,59.005309 283.072937,59.005309 C283.183499,59.005309 283.29406,58.9902079 283.404621,58.9600057 C283.514712,58.9298034 283.615394,58.8845001 283.705255,58.8240957 C283.796056,58.7636913 283.868509,58.6872419 283.924025,58.5938038 C283.979071,58.5008376 284.006829,58.3937142 284.006829,58.2729053 C284.006829,58.0765909 283.943785,57.9255799 283.818168,57.8198721 C283.693022,57.7141644 283.537295,57.6249735 283.351458,57.5518275 C283.166091,57.4786815 282.962846,57.4097827 282.741723,57.3441873 C282.521071,57.2790637 282.317826,57.1894009 282.131988,57.0761426 C281.946621,56.9628843 281.790894,56.8118732 281.665278,56.6231094 C281.540132,56.4343456 281.477559,56.181402 281.477559,55.8642788 C281.477559,55.5877398 281.534015,55.3484816 281.646459,55.1469762 C281.759373,54.9454708 281.907572,54.7784149 282.091057,54.6448644 C282.274072,54.511314 282.483903,54.412213 282.71914,54.3466176 C282.954848,54.2814941 283.196201,54.2484604 283.442259,54.2484604 C283.723133,54.2484604 283.995067,54.2914042 284.259003,54.3768198 C284.522469,54.4622354 284.759117,54.6033364 284.97036,54.7996508 L284.277822,55.5320545 Z M272.087737,54.384276 L273.344845,54.384276 L275.926808,58.355867 L275.941863,58.355867 L275.941863,54.384276 L276.89034,54.384276 L276.89034,59.7300677 L275.685925,59.7300677 L273.051269,55.6301173 L273.036684,55.6301173 L273.036684,59.7300677 L272.087737,59.7300677 L272.087737,54.384276 Z M262.643059,57.0798235 C262.643059,56.6522734 262.713159,56.262948 262.853361,55.913263 C262.994033,55.563578 263.188809,55.2653312 263.436749,55.0185225 C263.685159,54.7721856 263.981088,54.5820061 264.325475,54.4484557 C264.668921,54.3153772 265.046712,54.248366 265.457907,54.248366 C265.874747,54.2436469 266.255831,54.3049952 266.602571,54.4333546 C266.94837,54.561714 267.247121,54.7490621 267.497884,54.9958708 C267.748646,55.2426795 267.944364,55.5395106 268.085036,55.8868361 C268.225707,56.2341615 268.295808,56.6220712 268.295808,57.0496213 C268.295808,57.4677332 268.225707,57.8476204 268.085036,58.1897548 C267.944364,58.5323612 267.748646,58.8268328 267.497884,59.0731696 C267.247121,59.3199783 266.94837,59.5125174 266.602571,59.6507869 C266.255831,59.7895283 265.874747,59.8607867 265.457907,59.8659777 C265.046712,59.8659777 264.668921,59.7994384 264.325475,59.665888 C263.981088,59.5328095 263.685159,59.3440457 263.436749,59.0995965 C263.188809,58.8556193 262.994033,58.5625634 262.853361,58.2199571 C262.713159,57.8778226 262.643059,57.4979354 262.643059,57.0798235 Z M263.63623,57.0194191 C263.63623,57.3063401 263.680455,57.5706095 263.767963,57.8122272 C263.855942,58.0538449 263.979676,58.2629008 264.140579,58.4389231 C264.301481,58.6154173 264.492964,58.7536868 264.71691,58.8542035 C264.939915,58.9551922 265.189736,59.0052146 265.465905,59.0052146 C265.741603,59.0052146 265.992836,58.9551922 266.218193,58.8542035 C266.444492,58.7536868 266.637386,58.6154173 266.798288,58.4389231 C266.95872,58.2629008 267.082455,58.0538449 267.170904,57.8122272 C267.258412,57.5706095 267.302166,57.3063401 267.302166,57.0194191 C267.302166,56.7527902 267.258412,56.5036219 267.170904,56.2719143 C267.082455,56.0406786 266.95872,55.8377575 266.798288,55.6640948 C266.637386,55.490432 266.444492,55.3545221 266.218193,55.2563649 C265.992836,55.1582077 265.741603,55.1091291 265.465905,55.1091291 C265.189736,55.1091291 264.939915,55.1582077 264.71691,55.2563649 C264.492964,55.3545221 264.301481,55.490432 264.140579,55.6640948 C263.979676,55.8377575 263.855942,56.0406786 263.767963,56.2719143 C263.680455,56.5036219 263.63623,56.7527902 263.63623,57.0194191 Z M257.595481,59.7302093 L257.595481,54.3844175 L258.544427,54.3844175 L258.544427,59.7302093 L257.595481,59.7302093 Z M250.791904,55.2451334 L249.158417,55.2451334 L249.158417,54.3843704 L253.373867,54.3843704 L253.373867,55.2451334 L251.74038,55.2451334 L251.74038,59.7301621 L250.791904,59.7301621 L250.791904,55.2451334 Z M245.036874,57.7669239 C245.036874,58.0892381 244.981828,58.3799344 244.871267,58.6390128 C244.760705,58.8980911 244.610624,59.1184729 244.419611,59.2996862 C244.228599,59.4808995 244.003241,59.6205847 243.742128,59.7187419 C243.481015,59.8168991 243.197789,59.8659777 242.89151,59.8659777 C242.585702,59.8659777 242.302006,59.8168991 242.040893,59.7187419 C241.77978,59.6205847 241.553011,59.4808995 241.360116,59.2996862 C241.166281,59.1184729 241.015729,58.8980911 240.908461,58.6390128 C240.800252,58.3799344 240.746147,58.0892381 240.746147,57.7669239 L240.746147,54.384276 L241.694624,54.384276 L241.694624,57.7367216 C241.694624,57.8679125 241.714384,58.0047663 241.754844,58.1482268 C241.794835,58.2916873 241.861642,58.423822 241.954326,58.5446308 C242.047479,58.6654397 242.170273,58.7650126 242.323177,58.8428777 C242.476552,58.9212147 242.665683,58.9599113 242.89151,58.9599113 C243.117338,58.9599113 243.306469,58.9212147 243.459843,58.8428777 C243.613218,58.7650126 243.735541,58.6654397 243.828695,58.5446308 C243.921379,58.423822 243.988186,58.2916873 244.028176,58.1482268 C244.068167,58.0047663 244.088397,57.8679125 244.088397,57.7367216 L244.088397,54.384276 L245.036874,54.384276 L245.036874,57.7669239 Z M233.54422,54.384276 L234.492696,54.384276 L234.492696,58.8693046 L236.758501,58.8693046 L236.758501,59.7300677 L233.54422,59.7300677 L233.54422,54.384276 Z M224.036122,57.0798235 C224.036122,56.6522734 224.106222,56.262948 224.246894,55.913263 C224.387096,55.563578 224.581872,55.2653312 224.830282,55.0185225 C225.078693,54.7721856 225.374621,54.5820061 225.718538,54.4484557 C226.061984,54.3153772 226.439775,54.248366 226.85144,54.248366 C227.26781,54.2436469 227.648894,54.3049952 227.995634,54.4333546 C228.341903,54.561714 228.640184,54.7490621 228.891417,54.9958708 C229.14218,55.2426795 229.337897,55.5395106 229.478569,55.8868361 C229.61877,56.2341615 229.688871,56.6220712 229.688871,57.0496213 C229.688871,57.4677332 229.61877,57.8476204 229.478569,58.1897548 C229.337897,58.5323612 229.14218,58.8268328 228.891417,59.0731696 C228.640184,59.3199783 228.341903,59.5125174 227.995634,59.6507869 C227.648894,59.7895283 227.26781,59.8607867 226.85144,59.8659777 C226.439775,59.8659777 226.061984,59.7994384 225.718538,59.665888 C225.374621,59.5328095 225.078693,59.3440457 224.830282,59.0995965 C224.581872,58.8556193 224.387096,58.5625634 224.246894,58.2199571 C224.106222,57.8778226 224.036122,57.4979354 224.036122,57.0798235 Z M225.029763,57.0194191 C225.029763,57.3063401 225.073518,57.5706095 225.161026,57.8122272 C225.249005,58.0538449 225.37321,58.2629008 225.533642,58.4389231 C225.694544,58.6154173 225.886497,58.7536868 226.109973,58.8542035 C226.333448,58.9551922 226.582799,59.0052146 226.858968,59.0052146 C227.135136,59.0052146 227.385899,58.9551922 227.611256,58.8542035 C227.837554,58.7536868 228.030449,58.6154173 228.191351,58.4389231 C228.351783,58.2629008 228.475988,58.0538449 228.563967,57.8122272 C228.651475,57.5706095 228.6957,57.3063401 228.6957,57.0194191 C228.6957,56.7527902 228.651475,56.5036219 228.563967,56.2719143 C228.475988,56.0406786 228.351783,55.8377575 228.191351,55.6640948 C228.030449,55.490432 227.837554,55.3545221 227.611256,55.2563649 C227.385899,55.1582077 227.135136,55.1091291 226.858968,55.1091291 C226.582799,55.1091291 226.333448,55.1582077 226.109973,55.2563649 C225.886497,55.3545221 225.694544,55.490432 225.533642,55.6640948 C225.37321,55.8377575 225.249005,56.0406786 225.161026,56.2719143 C225.073518,56.5036219 225.029763,56.7527902 225.029763,57.0194191 Z M219.395551,55.5320545 C219.294869,55.3862344 219.160784,55.2791109 218.992825,55.2111559 C218.824395,55.143201 218.647497,55.1092235 218.46213,55.1092235 C218.351568,55.1092235 218.245241,55.121965 218.142207,55.1469762 C218.039173,55.1719874 217.94649,55.2125717 217.863686,55.2677851 C217.780412,55.3234704 217.714546,55.3947288 217.664205,55.4829759 C217.613864,55.571223 217.588929,55.675515 217.588929,55.7963238 C217.588929,55.9775371 217.651502,56.1158066 217.777119,56.2116043 C217.902265,56.3074019 218.057992,56.390458 218.24383,56.4607725 C218.429197,56.531559 218.632441,56.5995139 218.853564,56.6646375 C219.074217,56.7302329 219.277462,56.8208395 219.463299,56.9364574 C219.648666,57.0525471 219.804393,57.2059177 219.93001,57.3970411 C220.055156,57.5881645 220.118199,57.8425238 220.118199,58.159647 C220.118199,58.446568 220.065506,58.697152 219.96012,58.9109271 C219.854734,59.1247021 219.713121,59.3021401 219.534811,59.4432411 C219.356501,59.584342 219.149963,59.6900498 218.913785,59.7603643 C218.678077,59.8306788 218.429197,59.8660721 218.168554,59.8660721 C217.836869,59.8660721 217.518829,59.8103867 217.212079,59.6999599 C216.906271,59.589533 216.642805,59.4031288 216.422153,59.1412189 L217.137274,58.446568 C217.25254,58.6225903 217.404503,58.759916 217.592693,58.8580732 C217.780412,58.9562304 217.980364,59.005309 218.190666,59.005309 C218.301698,59.005309 218.411789,58.9902079 218.52235,58.9600057 C218.632441,58.9298034 218.733123,58.8845001 218.823454,58.8240957 C218.913785,58.7636913 218.986238,58.6872419 219.041754,58.5938038 C219.0968,58.5008376 219.124558,58.3937142 219.124558,58.2729053 C219.124558,58.0765909 219.061514,57.9255799 218.935897,57.8198721 C218.810751,57.7141644 218.655495,57.6249735 218.469657,57.5518275 C218.28382,57.4786815 218.080575,57.4097827 217.859452,57.3441873 C217.63927,57.2790637 217.435555,57.1894009 217.249717,57.0761426 C217.06435,56.9628843 216.908623,56.8118732 216.783477,56.6231094 C216.657861,56.4343456 216.595288,56.181402 216.595288,55.8642788 C216.595288,55.5877398 216.651744,55.3484816 216.764658,55.1469762 C216.877102,54.9454708 217.025301,54.7784149 217.208786,54.6448644 C217.391801,54.511314 217.601632,54.412213 217.836869,54.3466176 C218.073047,54.2814941 218.31393,54.2484604 218.559988,54.2484604 C218.840862,54.2484604 219.112796,54.2914042 219.376732,54.3768198 C219.640198,54.4622354 219.876846,54.6033364 220.088089,54.7996508 L219.395551,55.5320545 Z M204.683583,55.2633491 L203.050096,55.2633491 L203.050096,54.4025861 L207.265546,54.4025861 L207.265546,55.2633491 L205.632529,55.2633491 L205.632529,59.7483778 L204.683583,59.7483778 L204.683583,55.2633491 Z M195.691736,54.3844175 L197.543993,54.3844175 C197.799461,54.3844175 198.04646,54.408013 198.28499,54.4561478 C198.523521,54.5038107 198.735705,54.585451 198.921072,54.7015408 C199.106909,54.8171586 199.254638,54.9733607 199.365199,55.1696751 C199.475761,55.3659895 199.530806,55.6151577 199.530806,55.9171799 C199.530806,56.3050895 199.424479,56.6297633 199.210884,56.8912012 C198.997288,57.1526392 198.692892,57.3112008 198.296282,57.3668861 L199.711469,59.7302093 L198.567275,59.7302093 L197.33275,57.4650433 L196.640212,57.4650433 L196.640212,59.7302093 L195.691736,59.7302093 L195.691736,54.3844175 Z M197.377916,56.6495835 C197.513412,56.6495835 197.648909,56.6434487 197.784406,56.6307072 C197.919902,56.6179656 198.044107,56.5877634 198.157021,56.5401005 C198.269935,56.4924376 198.361678,56.4192917 198.431778,56.3211345 C198.502349,56.2229773 198.537165,56.0856516 198.537165,55.9096293 C198.537165,55.7538992 198.504702,55.6274274 198.439306,55.5321016 C198.37391,55.436304 198.289225,55.3645737 198.183368,55.3169109 C198.077982,55.269248 197.961304,55.2376301 197.833335,55.222529 C197.705366,55.2074279 197.581161,55.1998773 197.460719,55.1998773 L196.640212,55.1998773 L196.640212,56.6495835 L197.377916,56.6495835 Z M188.885713,54.3844175 L189.70669,54.3844175 L192.002135,59.7302093 L190.918632,59.7302093 L190.421341,58.5070197 L188.110371,58.5070197 L187.629076,59.7302093 L186.567685,59.7302093 L188.885713,54.3844175 Z M190.090127,57.6915599 L189.27009,55.5170005 L188.434057,57.6915599 L190.090127,57.6915599 Z M177.010611,54.384276 L178.455437,54.384276 L179.878622,58.1293504 L181.315921,54.384276 L182.746163,54.384276 L182.746163,59.7300677 L181.842853,59.7300677 L181.842853,55.2903424 L181.827797,55.2903424 L180.209836,59.7300677 L179.547408,59.7300677 L177.928977,55.2903424 L177.913921,55.2903424 L177.913921,59.7300677 L177.010611,59.7300677 L177.010611,54.384276 Z M171.509166,55.5320545 C171.408484,55.3862344 171.274399,55.2791109 171.10644,55.2111559 C170.93801,55.143201 170.761112,55.1092235 170.575745,55.1092235 C170.465183,55.1092235 170.358856,55.121965 170.255822,55.1469762 C170.152788,55.1719874 170.060105,55.2125717 169.977301,55.2677851 C169.894027,55.3234704 169.828161,55.3947288 169.77782,55.4829759 C169.727479,55.571223 169.702544,55.675515 169.702544,55.7963238 C169.702544,55.9775371 169.765117,56.1158066 169.890734,56.2116043 C170.01588,56.3074019 170.171607,56.390458 170.357445,56.4607725 C170.542811,56.531559 170.746056,56.5995139 170.967179,56.6646375 C171.187832,56.7302329 171.391077,56.8208395 171.576914,56.9364574 C171.762281,57.0525471 171.918008,57.2059177 172.043625,57.3970411 C172.168771,57.5881645 172.231814,57.8425238 172.231814,58.159647 C172.231814,58.446568 172.179121,58.697152 172.073735,58.9109271 C171.968349,59.1247021 171.826736,59.3021401 171.648426,59.4432411 C171.470116,59.584342 171.263578,59.6900498 171.0274,59.7603643 C170.791692,59.8306788 170.542811,59.8660721 170.282169,59.8660721 C169.950484,59.8660721 169.632444,59.8103867 169.325694,59.6999599 C169.019886,59.589533 168.75642,59.4031288 168.535768,59.1412189 L169.250889,58.446568 C169.366155,58.6225903 169.518118,58.759916 169.706308,58.8580732 C169.894027,58.9562304 170.093979,59.005309 170.304281,59.005309 C170.415313,59.005309 170.525404,58.9902079 170.635965,58.9600057 C170.746056,58.9298034 170.846738,58.8845001 170.937069,58.8240957 C171.0274,58.7636913 171.099853,58.6872419 171.155369,58.5938038 C171.210415,58.5008376 171.238173,58.3937142 171.238173,58.2729053 C171.238173,58.0765909 171.175129,57.9255799 171.049512,57.8198721 C170.924366,57.7141644 170.76911,57.6249735 170.583272,57.5518275 C170.397435,57.4786815 170.19419,57.4097827 169.973067,57.3441873 C169.752885,57.2790637 169.54917,57.1894009 169.363332,57.0761426 C169.177965,56.9628843 169.022238,56.8118732 168.897092,56.6231094 C168.771476,56.4343456 168.708902,56.181402 168.708902,55.8642788 C168.708902,55.5877398 168.765359,55.3484816 168.878273,55.1469762 C168.990717,54.9454708 169.138916,54.7784149 169.322401,54.6448644 C169.505416,54.511314 169.715247,54.412213 169.950484,54.3466176 C170.186662,54.2814941 170.427545,54.2484604 170.673603,54.2484604 C170.954477,54.2484604 171.226411,54.2914042 171.490347,54.3768198 C171.753812,54.4622354 171.990461,54.6033364 172.201704,54.7996508 L171.509166,55.5320545 Z M272.087973,48.0089191 L272.087973,24.4625186 L276.745669,24.4625186 L276.745669,48.0089191 L272.087973,48.0089191 Z M280.123674,48.0089191 L280.123674,24.4625186 L284.781371,24.4625186 L284.781371,48.0089191 L280.123674,48.0089191 Z M266.377261,33.8520563 C267.194475,33.8520563 267.975933,33.7052925 268.706109,33.4490456 L268.706109,48.0093438 L264.048883,48.0093438 L264.048883,33.4490456 C264.779059,33.7052925 265.560047,33.8520563 266.377261,33.8520563 Z M266.377261,29.5472971 C264.850101,29.5472971 263.611813,28.3052311 263.611813,26.7734126 C263.611813,25.2415941 264.850101,24 266.377261,24 C267.904421,24 269.142709,25.2415941 269.142709,26.7734126 C269.142709,28.3052311 267.904421,29.5472971 266.377261,29.5472971 Z M237.052594,32.8723249 L241.523983,32.8723249 L241.523983,34.9274911 L241.586085,34.9274911 C241.730521,34.6372667 241.938,34.3470423 242.207111,34.0558741 C242.475752,33.7656497 242.797086,33.5060994 243.169702,33.2772233 C243.542318,33.048819 243.966215,32.8624148 244.442806,32.7165947 C244.918926,32.5712465 245.436447,32.4985725 245.995371,32.4985725 C247.051115,32.4985725 247.987359,32.7165947 248.805044,33.1526392 C249.623199,33.5886836 250.238579,34.2738963 250.653067,35.2082773 C251.19129,34.2323683 251.842897,33.5367736 252.609299,33.1214931 C253.374761,32.7062127 254.317121,32.4985725 255.434968,32.4985725 C256.449311,32.4985725 257.302751,32.6698757 257.996701,33.012482 C258.68971,33.3546165 259.238753,33.8222789 259.64242,34.4140535 C260.046087,35.0058281 260.335429,35.7018947 260.511857,36.5003657 C260.687344,37.3002525 260.775793,38.1567684 260.775793,39.0703853 L260.775793,48.0092966 L256.118097,48.0092966 L256.118097,39.1944975 C256.118097,38.4889927 255.967545,37.8816451 255.667853,37.3729265 C255.36769,36.864208 254.834173,36.6098488 254.068711,36.6098488 C253.530018,36.6098488 253.079774,36.6980958 252.717979,36.8741181 C252.355243,37.0510842 252.065901,37.2950615 251.848542,37.6065218 C251.631183,37.9179821 251.475927,38.2813525 251.382773,38.6966329 C251.289619,39.1123853 251.243042,39.5479578 251.243042,40.0047663 L251.243042,48.0092966 L246.585346,48.0092966 L246.585346,40.0047663 C246.585346,39.7353059 246.574525,39.4026097 246.554294,39.0080932 C246.533123,38.6140487 246.461141,38.2402964 246.336935,37.8868361 C246.21273,37.5338477 246.010897,37.2327694 245.731435,36.9836011 C245.451973,36.7344329 245.04266,36.6098488 244.504908,36.6098488 C243.904112,36.6098488 243.418112,36.7188599 243.045497,36.9368821 C242.672881,37.1549043 242.388244,37.4456006 242.191586,37.808971 C241.994457,38.1723414 241.865077,38.5829027 241.803444,39.0392393 C241.741342,39.4960478 241.710291,39.9736203 241.710291,40.4719568 L241.710291,48.0092966 L237.052594,48.0092966 L237.052594,32.8723249 Z M233.544032,48.0093438 L229.259422,48.0093438 L229.259422,46.0159977 L229.196849,46.0159977 C229.011482,46.2864019 228.766835,46.5610533 228.467143,46.8413676 C228.166981,47.1216819 227.816007,47.3760412 227.411399,47.6044454 C227.008202,47.8333215 226.563134,48.0197258 226.076663,48.165074 C225.589722,48.3104221 225.087726,48.3830962 224.570675,48.3830962 C223.452828,48.3830962 222.438485,48.191029 221.527647,47.8068946 C220.616338,47.4232321 219.83535,46.8828956 219.183273,46.1873009 C218.531195,45.4917062 218.029199,44.6663363 217.677284,43.7111913 C217.324899,42.7565183 217.149412,41.7079352 217.149412,40.5654421 C217.149412,39.506477 217.309844,38.4942309 217.630707,37.5287039 C217.951571,36.5631769 218.40699,35.706661 218.996965,34.9591562 C219.58694,34.2116514 220.306295,33.6146858 221.155031,33.1682594 C222.003296,32.7223048 222.966357,32.4986197 224.042802,32.4986197 C225.015273,32.4986197 225.921406,32.6491588 226.759792,32.9502371 C227.598177,33.2517874 228.286481,33.765225 228.824704,34.4919657 L228.886336,34.4919657 L228.886336,24.4629433 L233.544032,24.4629433 L233.544032,48.0093438 Z M229.259422,40.4408579 C229.259422,39.2988367 228.933383,38.3748378 228.280835,37.668861 C227.629228,36.9633562 226.713215,36.6098959 225.533265,36.6098959 C224.353315,36.6098959 223.437302,36.9633562 222.785224,37.668861 C222.133147,38.3748378 221.807108,39.2988367 221.807108,40.4408579 C221.807108,41.5828791 222.133147,42.50735 222.785224,43.2128548 C223.437302,43.9188316 224.353315,44.2718199 225.533265,44.2718199 C226.713215,44.2718199 227.629228,43.9188316 228.280835,43.2128548 C228.933383,42.50735 229.259422,41.5828791 229.259422,40.4408579 Z M200.052798,32.8723249 L204.524186,32.8723249 L204.524186,34.9274911 L204.586289,34.9274911 C204.730724,34.6372667 204.938203,34.3470423 205.207315,34.0558741 C205.475956,33.7656497 205.79729,33.5060994 206.169905,33.2772233 C206.542521,33.048819 206.966418,32.8624148 207.443009,32.7165947 C207.919129,32.5712465 208.436651,32.4985725 208.995574,32.4985725 C210.175994,32.4985725 211.127293,32.6807296 211.852294,33.043628 C212.576825,33.4069984 213.140924,33.9105259 213.544591,34.5537387 C213.948258,35.1983672 214.222544,35.9557821 214.36745,36.827871 C214.511886,37.699488 214.58528,38.6447229 214.58528,39.6621599 L214.58528,48.0092966 L209.927113,48.0092966 L209.927113,40.5965409 C209.927113,40.1604964 209.911588,39.708879 209.881007,39.2416885 C209.849485,38.774498 209.756331,38.3441165 209.601075,37.9491281 C209.445818,37.5550836 209.207758,37.2327694 208.886895,36.9836011 C208.566031,36.7344329 208.105437,36.6098488 207.505111,36.6098488 C206.904316,36.6098488 206.418316,36.7188599 206.0457,36.9368821 C205.673084,37.1549043 205.388447,37.4456006 205.191789,37.808971 C204.995131,38.1723414 204.86575,38.5829027 204.804118,39.0392393 C204.741545,39.4960478 204.710494,39.9736203 204.710494,40.4719568 L204.710494,48.0092966 L200.052798,48.0092966 L200.052798,32.8723249 Z M194.351966,33.8518676 C195.168709,33.8518676 195.950167,33.7055756 196.680343,33.4488568 L196.680343,48.009155 L192.023118,48.009155 L192.023118,33.4488568 C192.753294,33.7055756 193.534752,33.8518676 194.351966,33.8518676 Z M194.351966,29.5472971 C192.824336,29.5472971 191.586518,28.3052311 191.586518,26.7734126 C191.586518,25.2415941 192.824336,24 194.351966,24 C195.879126,24 197.116944,25.2415941 197.116944,26.7734126 C197.116944,28.3052311 195.879126,29.5472971 194.351966,29.5472971 Z M164.285267,32.8723249 L169.253477,32.8723249 L172.327556,42.3718648 L172.389659,42.3718648 L174.966917,32.8723249 L180.059331,32.8723249 L182.853949,42.3718648 L182.916052,42.3718648 L185.74125,32.8723249 L190.461519,32.8723249 L185.089643,48.0092966 L180.49405,48.0092966 L177.357868,37.9491281 L177.295765,37.9491281 L174.501147,48.0092966 L169.8124,48.0092966 L164.285267,32.8723249 Z M146.114136,49.6216229 C144.336684,49.6216229 142.895151,48.154456 142.895151,46.3442108 C142.895151,44.5339657 144.336684,43.0663269 146.114136,43.0663269 C147.892059,43.0663269 149.333592,44.5339657 149.333592,46.3442108 C149.333592,48.154456 147.892059,49.6216229 146.114136,49.6216229 Z M148.221156,37.6112409 L146.534976,32.2041009 C154.092205,32.474977 160.228132,38.5885656 160.228132,46.0957033 C160.228132,48.5255657 159.604283,50.8081924 158.506666,52.7958755 L154.484581,48.6812959 C154.67183,47.9347349 154.780509,47.1537245 154.780509,46.3439277 C154.780509,42.146292 151.962838,38.6272622 148.221156,37.6112409 Z M137.718616,48.5243387 L133.780275,52.8135249 C132.648314,50.8220665 132,48.5328331 132,46.095892 C132,38.5382601 138.023483,32.3935254 145.644697,32.2005144 L144.166467,37.5184635 C140.29164,38.4042377 137.447623,42.0162337 137.447623,46.3441165 C137.447623,47.0972842 137.548304,47.8249687 137.718616,48.5243387 Z M152.715456,52.2408627 L158.116502,53.455086 C155.652628,57.3846771 151.266395,60 146.215383,60 C141.179425,60 136.72121,57.400722 134.192881,53.491423 L139.493715,52.1233572 C141.111206,54.1138718 143.53509,55.3818928 146.213501,55.3818928 C148.836866,55.3818928 151.153011,54.1615346 152.715456,52.2408627 Z"></path>
        </g>
    </g>
    </g>
</g>
</svg>